<svg width="16" height="16" viewBox="0 0 16 16" fill="none" xmlns="http://www.w3.org/2000/svg">
<path d="M1.12857 4.26839L3.31563 2.12548C3.48647 1.95815 3.7636 1.9582 3.93434 2.12548L6.12132 4.26839C6.39667 4.53812 6.20059 5.00001 5.81195 5.00001H4.5V13.5714C4.5 13.8081 4.30414 14 4.0625 14H3.1875C2.94586 14 2.75 13.8081 2.75 13.5714V5.00001H1.43794C1.04853 5.00001 0.853791 4.53758 1.12857 4.26839ZM7.5625 3.7143H14.5625C14.8041 3.7143 15 3.52243 15 3.28573V2.42858C15 2.19188 14.8041 2.00001 14.5625 2.00001H7.5625C7.32086 2.00001 7.125 2.19188 7.125 2.42858V3.28573C7.125 3.52243 7.32086 3.7143 7.5625 3.7143ZM7.125 6.71429V5.85715C7.125 5.62045 7.32086 5.42858 7.5625 5.42858H12.8125C13.0541 5.42858 13.25 5.62045 13.25 5.85715V6.71429C13.25 6.951 13.0541 7.14287 12.8125 7.14287H7.5625C7.32086 7.14287 7.125 6.951 7.125 6.71429ZM7.125 13.5714V12.7143C7.125 12.4776 7.32086 12.2857 7.5625 12.2857H9.3125C9.55414 12.2857 9.75 12.4776 9.75 12.7143V13.5714C9.75 13.8081 9.55414 14 9.3125 14H7.5625C7.32086 14 7.125 13.8081 7.125 13.5714ZM7.125 10.1429V9.28572C7.125 9.04901 7.32086 8.85715 7.5625 8.85715H11.0625C11.3041 8.85715 11.5 9.04901 11.5 9.28572V10.1429C11.5 10.3796 11.3041 10.5714 11.0625 10.5714H7.5625C7.32086 10.5714 7.125 10.3796 7.125 10.1429Z" fill="#C5C7CD"/>
</svg>
